<?xml version="1.0" standalone="no"?>
<!DOCTYPE svg PUBLIC "-//W3C//DTD SVG 20010904//EN"
 "http://www.w3.org/TR/2001/REC-SVG-20010904/DTD/svg10.dtd">
<svg version="1.0" xmlns="http://www.w3.org/2000/svg"
 width="260.000000pt" height="260.000000pt" viewBox="0 0 260.000000 260.000000"
 preserveAspectRatio="xMidYMid meet">
<metadata>
Created by potrace 1.14, written by Peter Selinger 2001-2017
</metadata>
<g transform="translate(0.000000,260.000000) scale(0.100000,-0.100000)"
fill="#000000" stroke="none">
<path d="M1510 1742 c0 -7 11 -40 25 -74 24 -60 30 -103 19 -143 -7 -27 -82
-47 -192 -53 -75 -3 -89 -1 -138 23 -31 15 -74 30 -97 33 -23 3 -55 16 -70 28
-50 42 -69 24 -38 -36 l20 -39 -35 -30 c-43 -38 -108 -42 -160 -11 l-33 21
-82 -20 c-89 -22 -139 -54 -104 -67 10 -4 46 0 81 9 86 23 104 22 101 -5 -2
-21 2 -23 36 -21 25 2 55 -6 86 -23 39 -20 56 -23 89 -18 30 5 48 2 66 -10 14
-9 42 -16 61 -16 20 0 71 -14 113 -32 74 -31 83 -32 212 -33 l134 0 15 -27
c21 -36 61 -55 76 -35 9 13 15 11 38 -9 28 -24 67 -32 67 -15 0 14 -90 91
-132 112 -21 11 -38 21 -38 23 0 2 9 23 20 47 11 24 20 61 20 82 0 32 5 41 35
58 19 12 35 25 35 30 0 22 -54 88 -80 99 -26 11 -28 15 -22 48 10 54 8 97 -3
97 -5 0 -11 -7 -12 -16 -1 -9 -7 -29 -13 -45 l-11 -28 -18 30 c-23 37 -71 81
-71 66z"/>
<path d="M40 880 c-2 -8 -4 -19 -5 -25 -2 -5 -3 -14 -4 -19 0 -5 -8 -3 -16 4
-13 11 -15 -36 -15 -414 l0 -426 1300 0 1300 0 -2 413 c0 226 -3 397 -5 379
-4 -33 -5 -33 -23 -17 -11 10 -18 21 -15 24 2 4 -5 7 -16 7 -14 0 -19 -7 -19
-29 0 -17 -4 -26 -10 -22 -6 4 -9 12 -8 18 2 7 0 13 -5 15 -19 6 -27 0 -27
-20 0 -20 -1 -21 -20 -3 -11 10 -20 26 -20 35 0 29 -26 31 -39 4 -6 -14 -15
-23 -20 -20 -5 4 -11 0 -14 -6 -3 -9 -13 -5 -32 12 -27 25 -27 25 -21 3 10
-32 -11 -29 -26 2 -7 15 -17 24 -25 21 -7 -3 -13 -1 -13 4 0 6 -4 10 -10 10
-5 0 -10 -9 -10 -21 0 -12 -5 -19 -12 -16 -7 2 -13 11 -13 20 0 8 -4 19 -8 23
-4 4 -7 -5 -7 -20 0 -31 -23 -44 -45 -26 -11 9 -15 9 -15 1 0 -7 -4 -9 -10 -6
-6 3 -10 -2 -10 -11 0 -15 -3 -15 -21 5 -17 18 -18 25 -9 36 9 11 9 15 1 15
-6 0 -11 -5 -11 -11 0 -5 -5 -7 -10 -4 -6 3 -18 -1 -27 -10 -15 -16 -17 -15
-29 6 -7 13 -10 27 -8 31 3 5 0 8 -5 8 -6 0 -11 -17 -11 -37 0 -21 -4 -33 -8
-27 -4 6 -19 14 -33 17 -24 6 -25 4 -22 -26 3 -26 1 -28 -6 -12 -5 11 -10 30
-10 43 -1 21 -21 33 -21 12 0 -14 -65 -7 -84 9 -12 10 -18 8 -31 -13 -18 -27
-44 -33 -62 -15 -6 6 -9 18 -6 25 3 8 1 14 -5 14 -5 0 -12 -10 -16 -22 -4 -18
-8 -20 -18 -10 -17 17 -28 15 -28 -7 0 -10 -6 -24 -14 -30 -12 -10 -18 -7 -31
13 -16 24 -54 39 -40 16 4 -6 -5 -10 -20 -10 -14 0 -28 7 -31 15 -4 8 -12 15
-20 15 -8 0 -14 10 -14 26 0 26 -1 26 -50 20 -64 -9 -98 -24 -105 -48 -8 -23
-22 -23 -63 2 -30 19 -34 19 -49 4 -11 -10 -26 -14 -44 -10 -17 3 -30 1 -33
-7 -3 -9 -7 -9 -13 -1 -4 6 -19 15 -32 19 -19 6 -23 4 -18 -9 10 -26 -13 -29
-36 -4 -13 14 -37 30 -55 36 -30 10 -32 9 -33 -11 -1 -12 -1 -28 0 -34 1 -7
-3 -13 -9 -13 -5 0 -10 9 -10 20 0 36 -30 23 -31 -12 0 -32 0 -33 -11 -8 -5
14 -11 35 -13 48 -3 26 -15 43 -15 20 0 -8 -12 -25 -27 -38 l-26 -23 -19 23
c-13 16 -18 18 -18 7 0 -31 -20 -27 -35 5 -14 30 -15 31 -10 6 6 -30 -3 -36
-23 -16 -9 9 -12 9 -12 0 0 -7 -4 -12 -10 -12 -5 0 -10 9 -10 19 0 11 -4 22
-9 25 -12 8 -22 -20 -15 -42 4 -11 -1 -8 -15 8 -11 14 -21 21 -21 16 0 -5 -7
-3 -15 4 -12 10 -15 9 -15 -4 0 -13 -5 -16 -20 -11 -11 4 -20 2 -20 -4 0 -19
-15 -12 -32 17 -17 26 -17 26 -18 5 0 -13 -4 -23 -10 -23 -5 0 -10 9 -10 19 0
11 -4 23 -10 26 -6 4 -7 -1 -3 -11 5 -14 1 -15 -28 -9 -19 4 -38 11 -44 16
-18 18 -28 9 -10 -11 10 -11 22 -17 26 -14 5 3 6 -2 3 -10 -8 -21 -20 -20 -28
1 -6 14 -8 14 -21 -3 -8 -10 -15 -14 -15 -9 0 6 -4 16 -9 24 -7 11 -13 10 -35
-4 -26 -17 -27 -17 -40 0 -14 20 -41 11 -32 -11 10 -25 -13 -25 -30 1 -13 20
-19 23 -31 14 -11 -10 -15 -8 -20 9 -6 24 -23 30 -23 8 0 -23 -38 -7 -43 18
-3 13 -5 15 -7 6z m1360 -50 c0 -5 -2 -10 -4 -10 -3 0 -8 5 -11 10 -3 6 -1 10
4 10 6 0 11 -4 11 -10z m-416 -8 c2 -4 0 -14 -5 -22 -8 -13 -10 -13 -19 0 -5
8 -10 18 -10 23 0 10 28 9 34 -1z m-147 -34 c-3 -8 -6 -5 -6 6 -1 11 2 17 5
13 3 -3 4 -12 1 -19z m-142 2 c3 -5 1 -10 -4 -10 -6 0 -11 5 -11 10 0 6 2 10
4 10 3 0 8 -4 11 -10z"/>
<path d="M2510 855 c0 -5 5 -17 10 -25 5 -8 10 -10 10 -5 0 6 -5 17 -10 25 -5
8 -10 11 -10 5z"/>
</g>
</svg>
